# xmcd
#
# Track frame offsets:
#	150
#	12044
#	28344
#	42557
#	63510
#	80055
#	97344
#	113787
#	130734
#	143517
#	157678
#	170971
#	184475
#
# Disc length: 2718 seconds
#
# Revision: 0
# Processed by: cddbd v1.5.2PL0 Copyright (c) Steve Scherf et al.
# Submitted via: EasyCDDAExtractor 12.0.1.1
#
DISCID=b70a9c0d
DTITLE=Various Artist - XO
DYEAR=2009
DGENRE=Country
TTITLE0=Vassendgutane - Hytta mi
TTITLE1=Arthur  J. Bjørdal - Brøytebruda
TTITLE2=Vassendgutane - Istid
TTITLE3=Arthur  J. Bjørdal - Båtfolk
TTITLE4=Vassendgutane - Sju kara
TTITLE5=Arthur  J. Bjørdal - Oksi e laus
TTITLE6=Vassendgutane - Trandal
TTITLE7=Arthur  J. Bjørdal - Sillikon i tatti
TTITLE8=Vassendgutane - Onkel Ruth
TTITLE9=Arthur  J. Bjørdal - Skjeta onderbrok
TTITLE10=Vassendgutane - Svigermora bak
TTITLE11=Arthur  J. Bjørdal - Landbruksmesse
TTITLE12=Vassendgutane - Ballj
EXTD=
EXTT0=
EXTT1=
EXTT2=
EXTT3=
EXTT4=
EXTT5=
EXTT6=
EXTT7=
EXTT8=
EXTT9=
EXTT10=
EXTT11=
EXTT12=
PLAYORDER=
